<?xml version="1.0" standalone="no"?>
<!DOCTYPE svg PUBLIC "-//W3C//DTD SVG 20010904//EN"
 "http://www.w3.org/TR/2001/REC-SVG-20010904/DTD/svg10.dtd">
<svg version="1.0" xmlns="http://www.w3.org/2000/svg"
 width="226.000000pt" height="226.000000pt" viewBox="0 0 226.000000 226.000000"
 preserveAspectRatio="xMidYMid meet">

<g transform="translate(0.000000,226.000000) scale(0.100000,-0.100000)"
fill="#000000" stroke="none">
<path d="M765 1764 c-151 -24 -312 -117 -375 -218 -23 -39 -16 -77 19 -95 35
-19 51 -12 109 47 101 102 236 149 387 135 58 -5 63 -4 83 22 28 35 28 47 -1
80 -21 25 -30 27 -107 30 -47 2 -98 1 -115 -1z"/>
<path d="M1318 1764 c-28 -5 -68 -46 -68 -69 0 -7 10 -25 22 -40 20 -26 25
-27 80 -22 154 14 289 -33 390 -135 31 -32 64 -58 73 -58 27 0 55 20 66 47 26
69 -137 208 -301 257 -56 17 -212 28 -262 20z"/>
<path d="M482 1278 c-20 -20 -14 -44 31 -104 50 -68 105 -109 173 -130 60 -18
78 -18 142 1 62 19 157 102 193 169 22 43 23 47 7 63 -16 16 -20 15 -65 -5
-78 -35 -137 -45 -242 -40 -77 4 -109 10 -155 31 -67 31 -68 31 -84 15z"/>
<path d="M1229 1274 c-35 -42 108 -201 208 -230 120 -35 245 24 328 155 29 47
31 64 10 81 -12 10 -26 8 -78 -15 -109 -49 -294 -46 -399 6 -45 23 -52 23 -69
3z"/>
<path d="M1125 750 c-116 -26 -204 -65 -271 -118 -51 -42 -103 -106 -93 -117
3 -2 29 12 59 31 63 40 210 89 308 104 37 6 150 13 250 17 151 5 185 9 190 21
8 23 -40 59 -98 71 -77 17 -253 12 -345 -9z"/>
</g>
</svg>
